<svg xmlns="http://www.w3.org/2000/svg" viewBox="0 0 14 14"  id="box"><path d="M1.042,4.5A.983.983,0,0,0,1,4.705V12a1,1,0,0,0,1,1H12a1,1,0,0,0,1-1V4.705a.983.983,0,0,0-.042-.205Z" fill="none" stroke="currentColor" stroke-linecap="round" stroke-linejoin="round"/><path d="M2.24,1.606,1.661,2.959l-.58,1.352a1.007,1.007,0,0,0-.039.189H12.958a1.007,1.007,0,0,0-.039-.189l-.58-1.352L11.76,1.606A1,1,0,0,0,10.841,1H3.159A1,1,0,0,0,2.24,1.606Z" fill="none" stroke="currentColor" stroke-linecap="round" stroke-linejoin="round"/><path d="M7 1L7 4.5" fill="none" stroke="currentColor" stroke-linecap="round" stroke-linejoin="round"/><path d="M8.5 10.5L10.5 10.5" fill="none" stroke="currentColor" stroke-linecap="round" stroke-linejoin="round"/></svg>